<mxfile host="Electron" agent="Mozilla/5.0 (X11; Linux x86_64) AppleWebKit/537.36 (KHTML, like Gecko) draw.io/27.0.9 Chrome/134.0.6998.205 Electron/35.5.1 Safari/537.36" version="27.0.9">
  <diagram name="Page-1" id="c_VZa1kq2EoQ4XZcFBsR">
    <mxGraphModel dx="2277" dy="991" grid="1" gridSize="10" guides="1" tooltips="1" connect="1" arrows="1" fold="1" page="1" pageScale="1" pageWidth="850" pageHeight="1100" math="0" shadow="0">
      <root>
        <mxCell id="0" />
        <mxCell id="1" parent="0" />
        <mxCell id="vzc8XZbFBflK5kjrjfG_-7" value="" style="rounded=0;whiteSpace=wrap;html=1;" vertex="1" parent="1">
          <mxGeometry x="320" y="80" width="240" height="440" as="geometry" />
        </mxCell>
        <mxCell id="vzc8XZbFBflK5kjrjfG_-13" value="" style="rounded=0;whiteSpace=wrap;html=1;strokeWidth=2;" vertex="1" parent="1">
          <mxGeometry x="560" y="80" width="240" height="440" as="geometry" />
        </mxCell>
        <mxCell id="vzc8XZbFBflK5kjrjfG_-14" value="" style="rounded=0;whiteSpace=wrap;html=1;" vertex="1" parent="1">
          <mxGeometry x="800" y="80" width="240" height="440" as="geometry" />
        </mxCell>
        <mxCell id="vzc8XZbFBflK5kjrjfG_-15" value="" style="rounded=0;whiteSpace=wrap;html=1;" vertex="1" parent="1">
          <mxGeometry x="1040" y="80" width="240" height="440" as="geometry" />
        </mxCell>
        <mxCell id="vzc8XZbFBflK5kjrjfG_-5" value="" style="rounded=0;whiteSpace=wrap;html=1;" vertex="1" parent="1">
          <mxGeometry x="80" y="80" width="240" height="440" as="geometry" />
        </mxCell>
        <mxCell id="guAKBY9zXK_D3ZB1R3vA-9" value="&lt;div&gt;QUAD_E_0&lt;/div&gt;" style="endArrow=classicThin;html=1;rounded=0;startArrow=baseDash;startFill=0;strokeWidth=5;endFill=1;fillColor=#dae8fc;strokeColor=#6c8ebf;" parent="1" edge="1">
          <mxGeometry x="0.0006" y="10" width="50" height="50" relative="1" as="geometry">
            <mxPoint x="120" y="120" as="sourcePoint" />
            <mxPoint x="280" y="120" as="targetPoint" />
            <mxPoint as="offset" />
          </mxGeometry>
        </mxCell>
        <mxCell id="guAKBY9zXK_D3ZB1R3vA-14" value="&lt;div&gt;QUAD_E_1&lt;/div&gt;" style="endArrow=classicThin;html=1;rounded=0;startArrow=none;startFill=0;endFill=1;fillColor=#e1d5e7;strokeColor=#9673a6;strokeWidth=2;" parent="1" edge="1">
          <mxGeometry x="0.0006" y="10" width="50" height="50" relative="1" as="geometry">
            <mxPoint x="120" y="160" as="sourcePoint" />
            <mxPoint x="280" y="160" as="targetPoint" />
            <mxPoint as="offset" />
          </mxGeometry>
        </mxCell>
        <mxCell id="guAKBY9zXK_D3ZB1R3vA-15" value="&lt;div&gt;QUAD_E_2&lt;/div&gt;" style="endArrow=classicThin;html=1;rounded=0;startArrow=none;startFill=0;endFill=1;fillColor=#f8cecc;strokeColor=#b85450;strokeWidth=2;" parent="1" edge="1">
          <mxGeometry y="10" width="50" height="50" relative="1" as="geometry">
            <mxPoint x="120" y="199.76" as="sourcePoint" />
            <mxPoint x="280" y="199.76" as="targetPoint" />
            <mxPoint as="offset" />
          </mxGeometry>
        </mxCell>
        <mxCell id="guAKBY9zXK_D3ZB1R3vA-16" value="&lt;div&gt;QUAD_E_3&lt;/div&gt;" style="endArrow=classicThin;html=1;rounded=0;startArrow=none;startFill=0;endFill=1;fillColor=#ffe6cc;strokeColor=#d79b00;strokeWidth=2;" parent="1" edge="1">
          <mxGeometry y="10" width="50" height="50" relative="1" as="geometry">
            <mxPoint x="120" y="240" as="sourcePoint" />
            <mxPoint x="280" y="240" as="targetPoint" />
            <mxPoint as="offset" />
          </mxGeometry>
        </mxCell>
        <mxCell id="guAKBY9zXK_D3ZB1R3vA-17" value="&lt;div&gt;QUAD_E_4&lt;/div&gt;" style="endArrow=baseDash;html=1;rounded=0;endFill=0;startArrow=none;startFill=0;strokeWidth=2;movable=1;resizable=1;rotatable=1;deletable=1;editable=1;locked=0;connectable=1;fillColor=#fff2cc;strokeColor=#d6b656;" parent="1" edge="1">
          <mxGeometry x="0.0006" y="10" width="50" height="50" relative="1" as="geometry">
            <mxPoint x="119" y="280" as="sourcePoint" />
            <mxPoint x="279" y="280" as="targetPoint" />
            <mxPoint as="offset" />
          </mxGeometry>
        </mxCell>
        <mxCell id="guAKBY9zXK_D3ZB1R3vA-19" value="&lt;div&gt;QUAD_E_0&lt;/div&gt;" style="endArrow=classicThin;html=1;rounded=0;startArrow=baseDash;startFill=0;strokeWidth=5;endFill=1;fillColor=#d5e8d4;strokeColor=#82b366;" parent="1" edge="1">
          <mxGeometry x="0.0006" y="10" width="50" height="50" relative="1" as="geometry">
            <mxPoint x="360" y="120" as="sourcePoint" />
            <mxPoint x="520" y="120" as="targetPoint" />
            <mxPoint as="offset" />
          </mxGeometry>
        </mxCell>
        <mxCell id="guAKBY9zXK_D3ZB1R3vA-20" value="&lt;div&gt;QUAD_E_1&lt;/div&gt;" style="endArrow=classicThin;html=1;rounded=0;endFill=1;fillColor=#dae8fc;strokeColor=#6c8ebf;strokeWidth=2;" parent="1" edge="1">
          <mxGeometry x="0.0006" y="10" width="50" height="50" relative="1" as="geometry">
            <mxPoint x="360" y="160" as="sourcePoint" />
            <mxPoint x="520" y="160" as="targetPoint" />
            <mxPoint as="offset" />
          </mxGeometry>
        </mxCell>
        <mxCell id="guAKBY9zXK_D3ZB1R3vA-21" value="&lt;div&gt;QUAD_E_2&lt;/div&gt;" style="endArrow=classicThin;html=1;rounded=0;endFill=1;fillColor=#e1d5e7;strokeColor=#9673a6;strokeWidth=2;" parent="1" edge="1">
          <mxGeometry y="10" width="50" height="50" relative="1" as="geometry">
            <mxPoint x="360" y="199.76" as="sourcePoint" />
            <mxPoint x="520" y="199.76" as="targetPoint" />
            <mxPoint as="offset" />
          </mxGeometry>
        </mxCell>
        <mxCell id="guAKBY9zXK_D3ZB1R3vA-22" value="&lt;div&gt;QUAD_E_3&lt;/div&gt;" style="endArrow=classicThin;html=1;rounded=0;endFill=1;fillColor=#f8cecc;strokeColor=#b85450;strokeWidth=2;" parent="1" edge="1">
          <mxGeometry y="10" width="50" height="50" relative="1" as="geometry">
            <mxPoint x="360" y="240" as="sourcePoint" />
            <mxPoint x="520" y="240" as="targetPoint" />
            <mxPoint as="offset" />
          </mxGeometry>
        </mxCell>
        <mxCell id="guAKBY9zXK_D3ZB1R3vA-23" value="&lt;div&gt;QUAD_E_4&lt;/div&gt;" style="endArrow=baseDash;html=1;rounded=0;endFill=0;strokeWidth=2;fillColor=#ffe6cc;strokeColor=#d79b00;" parent="1" edge="1">
          <mxGeometry x="0.0006" y="10" width="50" height="50" relative="1" as="geometry">
            <mxPoint x="360" y="280" as="sourcePoint" />
            <mxPoint x="520" y="280" as="targetPoint" />
            <mxPoint as="offset" />
          </mxGeometry>
        </mxCell>
        <mxCell id="guAKBY9zXK_D3ZB1R3vA-31" value="&lt;div&gt;QUAD_E_0&lt;/div&gt;" style="endArrow=classicThin;html=1;rounded=0;startArrow=baseDash;startFill=0;strokeWidth=5;endFill=1;fillColor=#fff2cc;strokeColor=#d6b656;" parent="1" edge="1">
          <mxGeometry x="0.0006" y="10" width="50" height="50" relative="1" as="geometry">
            <mxPoint x="600" y="120" as="sourcePoint" />
            <mxPoint x="760" y="120" as="targetPoint" />
            <mxPoint as="offset" />
          </mxGeometry>
        </mxCell>
        <mxCell id="guAKBY9zXK_D3ZB1R3vA-32" value="&lt;div&gt;QUAD_E_1&lt;/div&gt;" style="endArrow=classicThin;html=1;rounded=0;endFill=1;fillColor=#d5e8d4;strokeColor=#82b366;strokeWidth=2;" parent="1" edge="1">
          <mxGeometry x="0.0006" y="10" width="50" height="50" relative="1" as="geometry">
            <mxPoint x="600" y="160" as="sourcePoint" />
            <mxPoint x="760" y="160" as="targetPoint" />
            <mxPoint as="offset" />
          </mxGeometry>
        </mxCell>
        <mxCell id="guAKBY9zXK_D3ZB1R3vA-33" value="&lt;div&gt;QUAD_E_2&lt;/div&gt;" style="endArrow=classicThin;html=1;rounded=0;endFill=1;fillColor=#dae8fc;strokeColor=#6c8ebf;strokeWidth=2;" parent="1" edge="1">
          <mxGeometry y="10" width="50" height="50" relative="1" as="geometry">
            <mxPoint x="600" y="199.76" as="sourcePoint" />
            <mxPoint x="760" y="199.76" as="targetPoint" />
            <mxPoint as="offset" />
          </mxGeometry>
        </mxCell>
        <mxCell id="guAKBY9zXK_D3ZB1R3vA-34" value="&lt;div&gt;QUAD_E_3&lt;/div&gt;" style="endArrow=classicThin;html=1;rounded=0;endFill=1;fillColor=#e1d5e7;strokeColor=#9673a6;strokeWidth=2;" parent="1" edge="1">
          <mxGeometry y="10" width="50" height="50" relative="1" as="geometry">
            <mxPoint x="600" y="240" as="sourcePoint" />
            <mxPoint x="760" y="240" as="targetPoint" />
            <mxPoint as="offset" />
          </mxGeometry>
        </mxCell>
        <mxCell id="guAKBY9zXK_D3ZB1R3vA-35" value="&lt;div&gt;QUAD_E_4&lt;/div&gt;" style="endArrow=baseDash;html=1;rounded=0;endFill=0;strokeWidth=2;fillColor=#f8cecc;strokeColor=#b85450;" parent="1" edge="1">
          <mxGeometry x="0.0006" y="10" width="50" height="50" relative="1" as="geometry">
            <mxPoint x="600" y="280" as="sourcePoint" />
            <mxPoint x="760" y="280" as="targetPoint" />
            <mxPoint as="offset" />
          </mxGeometry>
        </mxCell>
        <mxCell id="guAKBY9zXK_D3ZB1R3vA-37" value="&lt;div&gt;QUAD_E_0&lt;/div&gt;" style="endArrow=classicThin;html=1;rounded=0;startArrow=baseDash;startFill=0;strokeWidth=5;endFill=1;fillColor=#ffe6cc;strokeColor=#d79b00;" parent="1" edge="1">
          <mxGeometry x="0.0006" y="10" width="50" height="50" relative="1" as="geometry">
            <mxPoint x="840" y="120" as="sourcePoint" />
            <mxPoint x="1000" y="120" as="targetPoint" />
            <mxPoint as="offset" />
          </mxGeometry>
        </mxCell>
        <mxCell id="guAKBY9zXK_D3ZB1R3vA-38" value="&lt;div&gt;QUAD_E_1&lt;/div&gt;" style="endArrow=classicThin;html=1;rounded=0;endFill=1;fillColor=#fff2cc;strokeColor=#d6b656;strokeWidth=2;" parent="1" edge="1">
          <mxGeometry x="0.0006" y="10" width="50" height="50" relative="1" as="geometry">
            <mxPoint x="840" y="160" as="sourcePoint" />
            <mxPoint x="1000" y="160" as="targetPoint" />
            <mxPoint as="offset" />
          </mxGeometry>
        </mxCell>
        <mxCell id="guAKBY9zXK_D3ZB1R3vA-39" value="&lt;div&gt;QUAD_E_2&lt;/div&gt;" style="endArrow=classicThin;html=1;rounded=0;endFill=1;fillColor=#d5e8d4;strokeColor=#82b366;strokeWidth=2;" parent="1" edge="1">
          <mxGeometry y="10" width="50" height="50" relative="1" as="geometry">
            <mxPoint x="840" y="199.76" as="sourcePoint" />
            <mxPoint x="1000" y="199.76" as="targetPoint" />
            <mxPoint as="offset" />
          </mxGeometry>
        </mxCell>
        <mxCell id="guAKBY9zXK_D3ZB1R3vA-40" value="&lt;div&gt;QUAD_E_3&lt;/div&gt;" style="endArrow=classicThin;html=1;rounded=0;endFill=1;fillColor=#dae8fc;strokeColor=#6c8ebf;strokeWidth=2;" parent="1" edge="1">
          <mxGeometry y="10" width="50" height="50" relative="1" as="geometry">
            <mxPoint x="840" y="240" as="sourcePoint" />
            <mxPoint x="1000" y="240" as="targetPoint" />
            <mxPoint as="offset" />
          </mxGeometry>
        </mxCell>
        <mxCell id="guAKBY9zXK_D3ZB1R3vA-41" value="&lt;div&gt;QUAD_E_4&lt;/div&gt;" style="endArrow=baseDash;html=1;rounded=0;endFill=0;strokeWidth=2;fillColor=#e1d5e7;strokeColor=#9673a6;" parent="1" edge="1">
          <mxGeometry x="0.0006" y="10" width="50" height="50" relative="1" as="geometry">
            <mxPoint x="840" y="280" as="sourcePoint" />
            <mxPoint x="1000" y="280" as="targetPoint" />
            <mxPoint as="offset" />
          </mxGeometry>
        </mxCell>
        <mxCell id="guAKBY9zXK_D3ZB1R3vA-43" value="&lt;div&gt;QUAD_E_0&lt;/div&gt;" style="endArrow=classicThin;html=1;rounded=0;startArrow=baseDash;startFill=0;strokeWidth=5;endFill=1;fillColor=#f8cecc;strokeColor=#b85450;" parent="1" edge="1">
          <mxGeometry x="0.0006" y="10" width="50" height="50" relative="1" as="geometry">
            <mxPoint x="1080" y="120" as="sourcePoint" />
            <mxPoint x="1240" y="120" as="targetPoint" />
            <mxPoint as="offset" />
          </mxGeometry>
        </mxCell>
        <mxCell id="guAKBY9zXK_D3ZB1R3vA-44" value="&lt;div&gt;QUAD_E_1&lt;/div&gt;" style="endArrow=classicThin;html=1;rounded=0;endFill=1;fillColor=#ffe6cc;strokeColor=#d79b00;strokeWidth=2;" parent="1" edge="1">
          <mxGeometry x="0.0006" y="10" width="50" height="50" relative="1" as="geometry">
            <mxPoint x="1080" y="160" as="sourcePoint" />
            <mxPoint x="1240" y="160" as="targetPoint" />
            <mxPoint as="offset" />
          </mxGeometry>
        </mxCell>
        <mxCell id="guAKBY9zXK_D3ZB1R3vA-45" value="&lt;div&gt;QUAD_E_2&lt;/div&gt;" style="endArrow=classicThin;html=1;rounded=0;endFill=1;fillColor=#fff2cc;strokeColor=#d6b656;strokeWidth=2;" parent="1" edge="1">
          <mxGeometry y="10" width="50" height="50" relative="1" as="geometry">
            <mxPoint x="1080" y="199.76" as="sourcePoint" />
            <mxPoint x="1240" y="199.76" as="targetPoint" />
            <mxPoint as="offset" />
          </mxGeometry>
        </mxCell>
        <mxCell id="guAKBY9zXK_D3ZB1R3vA-46" value="&lt;div&gt;QUAD_E_3&lt;/div&gt;" style="endArrow=classicThin;html=1;rounded=0;endFill=1;fillColor=#d5e8d4;strokeColor=#82b366;strokeWidth=2;" parent="1" edge="1">
          <mxGeometry y="10" width="50" height="50" relative="1" as="geometry">
            <mxPoint x="1080" y="240" as="sourcePoint" />
            <mxPoint x="1240" y="240" as="targetPoint" />
            <mxPoint as="offset" />
          </mxGeometry>
        </mxCell>
        <mxCell id="guAKBY9zXK_D3ZB1R3vA-47" value="&lt;div&gt;QUAD_E_4&lt;/div&gt;" style="endArrow=baseDash;html=1;rounded=0;endFill=0;strokeWidth=2;fillColor=#dae8fc;strokeColor=#6c8ebf;" parent="1" edge="1">
          <mxGeometry x="0.0006" y="10" width="50" height="50" relative="1" as="geometry">
            <mxPoint x="1080" y="280" as="sourcePoint" />
            <mxPoint x="1240" y="280" as="targetPoint" />
            <mxPoint as="offset" />
          </mxGeometry>
        </mxCell>
        <mxCell id="guAKBY9zXK_D3ZB1R3vA-50" value="" style="edgeStyle=none;orthogonalLoop=1;jettySize=auto;html=1;rounded=0;endArrow=none;startFill=0;fillColor=#dae8fc;strokeColor=#6c8ebf;strokeWidth=1;" parent="1" edge="1">
          <mxGeometry width="80" relative="1" as="geometry">
            <mxPoint x="280" y="120" as="sourcePoint" />
            <mxPoint x="360" y="160" as="targetPoint" />
            <Array as="points" />
          </mxGeometry>
        </mxCell>
        <mxCell id="guAKBY9zXK_D3ZB1R3vA-51" value="" style="edgeStyle=none;orthogonalLoop=1;jettySize=auto;html=1;rounded=0;endArrow=none;startFill=0;fillColor=#e1d5e7;strokeColor=#9673a6;strokeWidth=1;" parent="1" edge="1">
          <mxGeometry width="80" relative="1" as="geometry">
            <mxPoint x="280" y="160" as="sourcePoint" />
            <mxPoint x="360" y="200" as="targetPoint" />
            <Array as="points" />
          </mxGeometry>
        </mxCell>
        <mxCell id="guAKBY9zXK_D3ZB1R3vA-52" value="" style="edgeStyle=none;orthogonalLoop=1;jettySize=auto;html=1;rounded=0;endArrow=none;startFill=0;fillColor=#f8cecc;strokeColor=#b85450;strokeWidth=1;" parent="1" edge="1">
          <mxGeometry width="80" relative="1" as="geometry">
            <mxPoint x="280" y="200" as="sourcePoint" />
            <mxPoint x="360" y="240" as="targetPoint" />
            <Array as="points" />
          </mxGeometry>
        </mxCell>
        <mxCell id="guAKBY9zXK_D3ZB1R3vA-53" value="" style="edgeStyle=none;orthogonalLoop=1;jettySize=auto;html=1;rounded=0;endArrow=none;startFill=0;fillColor=#ffe6cc;strokeColor=#d79b00;strokeWidth=1;" parent="1" edge="1">
          <mxGeometry width="80" relative="1" as="geometry">
            <mxPoint x="280" y="240" as="sourcePoint" />
            <mxPoint x="360" y="280" as="targetPoint" />
            <Array as="points" />
          </mxGeometry>
        </mxCell>
        <mxCell id="guAKBY9zXK_D3ZB1R3vA-54" value="" style="edgeStyle=none;orthogonalLoop=1;jettySize=auto;html=1;rounded=0;endArrow=none;startFill=0;fillColor=#d5e8d4;strokeColor=#82b366;strokeWidth=1;" parent="1" edge="1">
          <mxGeometry width="80" relative="1" as="geometry">
            <mxPoint x="520" y="120" as="sourcePoint" />
            <mxPoint x="600" y="160" as="targetPoint" />
            <Array as="points" />
          </mxGeometry>
        </mxCell>
        <mxCell id="guAKBY9zXK_D3ZB1R3vA-55" value="" style="edgeStyle=none;orthogonalLoop=1;jettySize=auto;html=1;rounded=0;endArrow=none;startFill=0;fillColor=#dae8fc;strokeColor=#6c8ebf;strokeWidth=1;" parent="1" edge="1">
          <mxGeometry width="80" relative="1" as="geometry">
            <mxPoint x="520" y="160" as="sourcePoint" />
            <mxPoint x="600" y="200" as="targetPoint" />
            <Array as="points" />
          </mxGeometry>
        </mxCell>
        <mxCell id="guAKBY9zXK_D3ZB1R3vA-56" value="" style="edgeStyle=none;orthogonalLoop=1;jettySize=auto;html=1;rounded=0;endArrow=none;startFill=0;fillColor=#e1d5e7;strokeColor=#9673a6;strokeWidth=1;" parent="1" edge="1">
          <mxGeometry width="80" relative="1" as="geometry">
            <mxPoint x="520" y="200" as="sourcePoint" />
            <mxPoint x="600" y="240" as="targetPoint" />
            <Array as="points" />
          </mxGeometry>
        </mxCell>
        <mxCell id="guAKBY9zXK_D3ZB1R3vA-57" value="" style="edgeStyle=none;orthogonalLoop=1;jettySize=auto;html=1;rounded=0;endArrow=none;startFill=0;fillColor=#f8cecc;strokeColor=#b85450;strokeWidth=1;" parent="1" edge="1">
          <mxGeometry width="80" relative="1" as="geometry">
            <mxPoint x="520" y="240" as="sourcePoint" />
            <mxPoint x="600" y="280" as="targetPoint" />
            <Array as="points" />
          </mxGeometry>
        </mxCell>
        <mxCell id="guAKBY9zXK_D3ZB1R3vA-58" value="" style="edgeStyle=none;orthogonalLoop=1;jettySize=auto;html=1;rounded=0;endArrow=none;startFill=0;fillColor=#fff2cc;strokeColor=#d6b656;strokeWidth=1;" parent="1" edge="1">
          <mxGeometry width="80" relative="1" as="geometry">
            <mxPoint x="760" y="120" as="sourcePoint" />
            <mxPoint x="840" y="160" as="targetPoint" />
            <Array as="points" />
          </mxGeometry>
        </mxCell>
        <mxCell id="guAKBY9zXK_D3ZB1R3vA-59" value="" style="edgeStyle=none;orthogonalLoop=1;jettySize=auto;html=1;rounded=0;endArrow=none;startFill=0;fillColor=#d5e8d4;strokeColor=#82b366;strokeWidth=1;" parent="1" edge="1">
          <mxGeometry width="80" relative="1" as="geometry">
            <mxPoint x="760" y="160" as="sourcePoint" />
            <mxPoint x="840" y="200" as="targetPoint" />
            <Array as="points" />
          </mxGeometry>
        </mxCell>
        <mxCell id="guAKBY9zXK_D3ZB1R3vA-60" value="" style="edgeStyle=none;orthogonalLoop=1;jettySize=auto;html=1;rounded=0;endArrow=none;startFill=0;fillColor=#dae8fc;strokeColor=#6c8ebf;strokeWidth=1;" parent="1" edge="1">
          <mxGeometry width="80" relative="1" as="geometry">
            <mxPoint x="760" y="200" as="sourcePoint" />
            <mxPoint x="840" y="240" as="targetPoint" />
            <Array as="points" />
          </mxGeometry>
        </mxCell>
        <mxCell id="guAKBY9zXK_D3ZB1R3vA-61" value="" style="edgeStyle=none;orthogonalLoop=1;jettySize=auto;html=1;rounded=0;endArrow=none;startFill=0;fillColor=#e1d5e7;strokeColor=#9673a6;strokeWidth=1;" parent="1" edge="1">
          <mxGeometry width="80" relative="1" as="geometry">
            <mxPoint x="760" y="240" as="sourcePoint" />
            <mxPoint x="840" y="280" as="targetPoint" />
            <Array as="points" />
          </mxGeometry>
        </mxCell>
        <mxCell id="guAKBY9zXK_D3ZB1R3vA-62" value="" style="edgeStyle=none;orthogonalLoop=1;jettySize=auto;html=1;rounded=0;endArrow=none;startFill=0;fillColor=#ffe6cc;strokeColor=#d79b00;strokeWidth=1;" parent="1" edge="1">
          <mxGeometry width="80" relative="1" as="geometry">
            <mxPoint x="1000" y="120" as="sourcePoint" />
            <mxPoint x="1080" y="160" as="targetPoint" />
            <Array as="points" />
          </mxGeometry>
        </mxCell>
        <mxCell id="guAKBY9zXK_D3ZB1R3vA-63" value="" style="edgeStyle=none;orthogonalLoop=1;jettySize=auto;html=1;rounded=0;endArrow=none;startFill=0;fillColor=#fff2cc;strokeColor=#d6b656;strokeWidth=1;" parent="1" edge="1">
          <mxGeometry width="80" relative="1" as="geometry">
            <mxPoint x="1000" y="160" as="sourcePoint" />
            <mxPoint x="1080" y="200" as="targetPoint" />
            <Array as="points" />
          </mxGeometry>
        </mxCell>
        <mxCell id="guAKBY9zXK_D3ZB1R3vA-64" value="" style="edgeStyle=none;orthogonalLoop=1;jettySize=auto;html=1;rounded=0;endArrow=none;startFill=0;fillColor=#d5e8d4;strokeColor=#82b366;strokeWidth=1;" parent="1" edge="1">
          <mxGeometry width="80" relative="1" as="geometry">
            <mxPoint x="1000" y="200" as="sourcePoint" />
            <mxPoint x="1080" y="240" as="targetPoint" />
            <Array as="points" />
          </mxGeometry>
        </mxCell>
        <mxCell id="guAKBY9zXK_D3ZB1R3vA-65" value="" style="edgeStyle=none;orthogonalLoop=1;jettySize=auto;html=1;rounded=0;endArrow=none;startFill=0;fillColor=#dae8fc;strokeColor=#6c8ebf;strokeWidth=1;" parent="1" edge="1">
          <mxGeometry width="80" relative="1" as="geometry">
            <mxPoint x="1000" y="240" as="sourcePoint" />
            <mxPoint x="1080" y="280" as="targetPoint" />
            <Array as="points" />
          </mxGeometry>
        </mxCell>
        <mxCell id="guAKBY9zXK_D3ZB1R3vA-66" value="" style="edgeStyle=none;orthogonalLoop=1;jettySize=auto;html=1;rounded=0;endArrow=none;startFill=0;dashed=1;fillColor=#f8cecc;strokeColor=#b85450;strokeWidth=1;" parent="1" edge="1">
          <mxGeometry width="80" relative="1" as="geometry">
            <mxPoint x="1240" y="120" as="sourcePoint" />
            <mxPoint x="1320" y="160" as="targetPoint" />
            <Array as="points" />
          </mxGeometry>
        </mxCell>
        <mxCell id="guAKBY9zXK_D3ZB1R3vA-68" value="" style="edgeStyle=none;orthogonalLoop=1;jettySize=auto;html=1;rounded=0;endArrow=none;startFill=0;dashed=1;fillColor=#fff2cc;strokeColor=#d6b656;strokeWidth=1;" parent="1" edge="1">
          <mxGeometry width="80" relative="1" as="geometry">
            <mxPoint x="1240" y="200" as="sourcePoint" />
            <mxPoint x="1320" y="240" as="targetPoint" />
            <Array as="points" />
          </mxGeometry>
        </mxCell>
        <mxCell id="guAKBY9zXK_D3ZB1R3vA-70" value="" style="edgeStyle=none;orthogonalLoop=1;jettySize=auto;html=1;rounded=0;endArrow=none;startFill=0;dashed=1;fillColor=#ffe6cc;strokeColor=#d79b00;strokeWidth=1;" parent="1" edge="1">
          <mxGeometry width="80" relative="1" as="geometry">
            <mxPoint x="1240" y="160" as="sourcePoint" />
            <mxPoint x="1320" y="200" as="targetPoint" />
            <Array as="points" />
          </mxGeometry>
        </mxCell>
        <mxCell id="guAKBY9zXK_D3ZB1R3vA-71" value="" style="edgeStyle=none;orthogonalLoop=1;jettySize=auto;html=1;rounded=0;endArrow=none;startFill=0;dashed=1;fillColor=#d5e8d4;strokeColor=#82b366;strokeWidth=1;" parent="1" edge="1">
          <mxGeometry width="80" relative="1" as="geometry">
            <mxPoint x="1240" y="240" as="sourcePoint" />
            <mxPoint x="1320" y="280" as="targetPoint" />
            <Array as="points" />
          </mxGeometry>
        </mxCell>
        <mxCell id="guAKBY9zXK_D3ZB1R3vA-73" value="X0" style="text;html=1;align=center;verticalAlign=middle;whiteSpace=wrap;rounded=0;" parent="1" vertex="1">
          <mxGeometry x="170" y="50" width="60" height="30" as="geometry" />
        </mxCell>
        <mxCell id="guAKBY9zXK_D3ZB1R3vA-74" value="X1" style="text;html=1;align=center;verticalAlign=middle;whiteSpace=wrap;rounded=0;" parent="1" vertex="1">
          <mxGeometry x="410" y="50" width="60" height="30" as="geometry" />
        </mxCell>
        <mxCell id="guAKBY9zXK_D3ZB1R3vA-75" value="X2" style="text;html=1;align=center;verticalAlign=middle;whiteSpace=wrap;rounded=0;" parent="1" vertex="1">
          <mxGeometry x="650" y="50" width="60" height="30" as="geometry" />
        </mxCell>
        <mxCell id="guAKBY9zXK_D3ZB1R3vA-76" value="&lt;div&gt;X3&lt;/div&gt;" style="text;html=1;align=center;verticalAlign=middle;whiteSpace=wrap;rounded=0;" parent="1" vertex="1">
          <mxGeometry x="890" y="50" width="60" height="30" as="geometry" />
        </mxCell>
        <mxCell id="guAKBY9zXK_D3ZB1R3vA-77" value="X4" style="text;html=1;align=center;verticalAlign=middle;whiteSpace=wrap;rounded=0;" parent="1" vertex="1">
          <mxGeometry x="1130" y="50" width="60" height="30" as="geometry" />
        </mxCell>
        <mxCell id="guAKBY9zXK_D3ZB1R3vA-78" value="Y0" style="text;html=1;align=center;verticalAlign=middle;whiteSpace=wrap;rounded=0;" parent="1" vertex="1">
          <mxGeometry x="-10" y="285" width="60" height="30" as="geometry" />
        </mxCell>
        <mxCell id="vzc8XZbFBflK5kjrjfG_-61" value="QUAD_W_0" style="endArrow=baseDash;html=1;rounded=0;startArrow=classicThin;startFill=1;strokeWidth=5;endFill=0;fillColor=#d5e8d4;strokeColor=#82b366;" edge="1" parent="1">
          <mxGeometry x="0.0006" y="10" width="50" height="50" relative="1" as="geometry">
            <mxPoint x="1080" y="320" as="sourcePoint" />
            <mxPoint x="1240" y="320" as="targetPoint" />
            <mxPoint as="offset" />
          </mxGeometry>
        </mxCell>
        <mxCell id="vzc8XZbFBflK5kjrjfG_-62" value="QUAD_W_1" style="endArrow=none;html=1;rounded=0;startArrow=classicThin;startFill=1;strokeWidth=2;endFill=0;fillColor=#dae8fc;strokeColor=#6c8ebf;" edge="1" parent="1">
          <mxGeometry x="0.0006" y="10" width="50" height="50" relative="1" as="geometry">
            <mxPoint x="1080" y="360" as="sourcePoint" />
            <mxPoint x="1240" y="360" as="targetPoint" />
            <mxPoint as="offset" />
          </mxGeometry>
        </mxCell>
        <mxCell id="vzc8XZbFBflK5kjrjfG_-63" value="QUAD_W_2" style="endArrow=none;html=1;rounded=0;startArrow=classicThin;startFill=1;strokeWidth=2;endFill=0;fillColor=#e1d5e7;strokeColor=#9673a6;" edge="1" parent="1">
          <mxGeometry x="0.0006" y="10" width="50" height="50" relative="1" as="geometry">
            <mxPoint x="1080" y="400" as="sourcePoint" />
            <mxPoint x="1240" y="400" as="targetPoint" />
            <mxPoint as="offset" />
          </mxGeometry>
        </mxCell>
        <mxCell id="vzc8XZbFBflK5kjrjfG_-64" value="QUAD_W_3" style="endArrow=none;html=1;rounded=0;startArrow=classicThin;startFill=1;strokeWidth=2;endFill=0;fillColor=#f8cecc;strokeColor=#b85450;" edge="1" parent="1">
          <mxGeometry x="0.0006" y="10" width="50" height="50" relative="1" as="geometry">
            <mxPoint x="1080" y="440" as="sourcePoint" />
            <mxPoint x="1240" y="440" as="targetPoint" />
            <mxPoint as="offset" />
          </mxGeometry>
        </mxCell>
        <mxCell id="vzc8XZbFBflK5kjrjfG_-65" value="QUAD_W_4" style="endArrow=none;html=1;rounded=0;startArrow=baseDash;startFill=0;strokeWidth=2;endFill=0;fillColor=#ffe6cc;strokeColor=#d79b00;" edge="1" parent="1">
          <mxGeometry x="0.0006" y="10" width="50" height="50" relative="1" as="geometry">
            <mxPoint x="1080" y="480" as="sourcePoint" />
            <mxPoint x="1240" y="480" as="targetPoint" />
            <mxPoint as="offset" />
          </mxGeometry>
        </mxCell>
        <mxCell id="vzc8XZbFBflK5kjrjfG_-66" value="QUAD_W_0" style="endArrow=baseDash;html=1;rounded=0;startArrow=classicThin;startFill=1;strokeWidth=5;endFill=0;fillColor=#fff2cc;strokeColor=#d6b656;" edge="1" parent="1">
          <mxGeometry x="0.0006" y="10" width="50" height="50" relative="1" as="geometry">
            <mxPoint x="840" y="320" as="sourcePoint" />
            <mxPoint x="1000" y="320" as="targetPoint" />
            <mxPoint as="offset" />
          </mxGeometry>
        </mxCell>
        <mxCell id="vzc8XZbFBflK5kjrjfG_-67" value="QUAD_W_1" style="endArrow=none;html=1;rounded=0;startArrow=classicThin;startFill=1;strokeWidth=2;endFill=0;fillColor=#d5e8d4;strokeColor=#82b366;" edge="1" parent="1">
          <mxGeometry x="0.0006" y="10" width="50" height="50" relative="1" as="geometry">
            <mxPoint x="840" y="360" as="sourcePoint" />
            <mxPoint x="1000" y="360" as="targetPoint" />
            <mxPoint as="offset" />
          </mxGeometry>
        </mxCell>
        <mxCell id="vzc8XZbFBflK5kjrjfG_-68" value="QUAD_W_2" style="endArrow=none;html=1;rounded=0;startArrow=classicThin;startFill=1;strokeWidth=2;endFill=0;fillColor=#dae8fc;strokeColor=#6c8ebf;" edge="1" parent="1">
          <mxGeometry x="0.0006" y="10" width="50" height="50" relative="1" as="geometry">
            <mxPoint x="840" y="400" as="sourcePoint" />
            <mxPoint x="1000" y="400" as="targetPoint" />
            <mxPoint as="offset" />
          </mxGeometry>
        </mxCell>
        <mxCell id="vzc8XZbFBflK5kjrjfG_-69" value="QUAD_W_3" style="endArrow=none;html=1;rounded=0;startArrow=classicThin;startFill=1;strokeWidth=2;endFill=0;fillColor=#e1d5e7;strokeColor=#9673a6;" edge="1" parent="1">
          <mxGeometry x="0.0006" y="10" width="50" height="50" relative="1" as="geometry">
            <mxPoint x="840" y="440" as="sourcePoint" />
            <mxPoint x="1000" y="440" as="targetPoint" />
            <mxPoint as="offset" />
          </mxGeometry>
        </mxCell>
        <mxCell id="vzc8XZbFBflK5kjrjfG_-70" value="QUAD_W_4" style="endArrow=none;html=1;rounded=0;startArrow=baseDash;startFill=0;strokeWidth=2;endFill=0;fillColor=#f8cecc;strokeColor=#b85450;" edge="1" parent="1">
          <mxGeometry x="0.0006" y="10" width="50" height="50" relative="1" as="geometry">
            <mxPoint x="840" y="480" as="sourcePoint" />
            <mxPoint x="1000" y="480" as="targetPoint" />
            <mxPoint as="offset" />
          </mxGeometry>
        </mxCell>
        <mxCell id="vzc8XZbFBflK5kjrjfG_-71" value="QUAD_W_0" style="endArrow=baseDash;html=1;rounded=0;startArrow=classicThin;startFill=1;strokeWidth=5;endFill=0;fillColor=#ffe6cc;strokeColor=#d79b00;" edge="1" parent="1">
          <mxGeometry x="0.0006" y="10" width="50" height="50" relative="1" as="geometry">
            <mxPoint x="600" y="320" as="sourcePoint" />
            <mxPoint x="760" y="320" as="targetPoint" />
            <mxPoint as="offset" />
          </mxGeometry>
        </mxCell>
        <mxCell id="vzc8XZbFBflK5kjrjfG_-72" value="QUAD_W_1" style="endArrow=none;html=1;rounded=0;startArrow=classicThin;startFill=1;strokeWidth=2;endFill=0;fillColor=#fff2cc;strokeColor=#d6b656;" edge="1" parent="1">
          <mxGeometry x="0.0006" y="10" width="50" height="50" relative="1" as="geometry">
            <mxPoint x="600" y="360" as="sourcePoint" />
            <mxPoint x="760" y="360" as="targetPoint" />
            <mxPoint as="offset" />
          </mxGeometry>
        </mxCell>
        <mxCell id="vzc8XZbFBflK5kjrjfG_-73" value="QUAD_W_2" style="endArrow=none;html=1;rounded=0;startArrow=classicThin;startFill=1;strokeWidth=2;endFill=0;fillColor=#d5e8d4;strokeColor=#82b366;" edge="1" parent="1">
          <mxGeometry x="0.0006" y="10" width="50" height="50" relative="1" as="geometry">
            <mxPoint x="600" y="400" as="sourcePoint" />
            <mxPoint x="760" y="400" as="targetPoint" />
            <mxPoint as="offset" />
          </mxGeometry>
        </mxCell>
        <mxCell id="vzc8XZbFBflK5kjrjfG_-74" value="QUAD_W_3" style="endArrow=none;html=1;rounded=0;startArrow=classicThin;startFill=1;strokeWidth=2;endFill=0;fillColor=#dae8fc;strokeColor=#6c8ebf;" edge="1" parent="1">
          <mxGeometry x="0.0006" y="10" width="50" height="50" relative="1" as="geometry">
            <mxPoint x="600" y="440" as="sourcePoint" />
            <mxPoint x="760" y="440" as="targetPoint" />
            <mxPoint as="offset" />
          </mxGeometry>
        </mxCell>
        <mxCell id="vzc8XZbFBflK5kjrjfG_-75" value="QUAD_W_4" style="endArrow=none;html=1;rounded=0;startArrow=baseDash;startFill=0;strokeWidth=2;endFill=0;fillColor=#e1d5e7;strokeColor=#9673a6;" edge="1" parent="1">
          <mxGeometry x="0.0006" y="10" width="50" height="50" relative="1" as="geometry">
            <mxPoint x="600" y="480" as="sourcePoint" />
            <mxPoint x="760" y="480" as="targetPoint" />
            <mxPoint as="offset" />
          </mxGeometry>
        </mxCell>
        <mxCell id="vzc8XZbFBflK5kjrjfG_-76" value="QUAD_W_0" style="endArrow=baseDash;html=1;rounded=0;startArrow=classicThin;startFill=1;strokeWidth=5;endFill=0;fillColor=#f8cecc;strokeColor=#b85450;" edge="1" parent="1">
          <mxGeometry x="0.0006" y="10" width="50" height="50" relative="1" as="geometry">
            <mxPoint x="360" y="320" as="sourcePoint" />
            <mxPoint x="520" y="320" as="targetPoint" />
            <mxPoint as="offset" />
          </mxGeometry>
        </mxCell>
        <mxCell id="vzc8XZbFBflK5kjrjfG_-77" value="QUAD_W_1" style="endArrow=none;html=1;rounded=0;startArrow=classicThin;startFill=1;strokeWidth=2;endFill=0;fillColor=#ffe6cc;strokeColor=#d79b00;" edge="1" parent="1">
          <mxGeometry x="0.0006" y="10" width="50" height="50" relative="1" as="geometry">
            <mxPoint x="360" y="360" as="sourcePoint" />
            <mxPoint x="520" y="360" as="targetPoint" />
            <mxPoint as="offset" />
          </mxGeometry>
        </mxCell>
        <mxCell id="vzc8XZbFBflK5kjrjfG_-78" value="QUAD_W_2" style="endArrow=none;html=1;rounded=0;startArrow=classicThin;startFill=1;strokeWidth=2;endFill=0;fillColor=#fff2cc;strokeColor=#d6b656;" edge="1" parent="1">
          <mxGeometry x="0.0006" y="10" width="50" height="50" relative="1" as="geometry">
            <mxPoint x="360" y="400" as="sourcePoint" />
            <mxPoint x="520" y="400" as="targetPoint" />
            <mxPoint as="offset" />
          </mxGeometry>
        </mxCell>
        <mxCell id="vzc8XZbFBflK5kjrjfG_-79" value="QUAD_W_3" style="endArrow=none;html=1;rounded=0;startArrow=classicThin;startFill=1;strokeWidth=2;endFill=0;fillColor=#d5e8d4;strokeColor=#82b366;" edge="1" parent="1">
          <mxGeometry x="0.0006" y="10" width="50" height="50" relative="1" as="geometry">
            <mxPoint x="360" y="440" as="sourcePoint" />
            <mxPoint x="520" y="440" as="targetPoint" />
            <mxPoint as="offset" />
          </mxGeometry>
        </mxCell>
        <mxCell id="vzc8XZbFBflK5kjrjfG_-80" value="QUAD_W_4" style="endArrow=none;html=1;rounded=0;startArrow=baseDash;startFill=0;strokeWidth=2;endFill=0;fillColor=#dae8fc;strokeColor=#6c8ebf;" edge="1" parent="1">
          <mxGeometry x="0.0006" y="10" width="50" height="50" relative="1" as="geometry">
            <mxPoint x="360" y="480" as="sourcePoint" />
            <mxPoint x="520" y="480" as="targetPoint" />
            <mxPoint as="offset" />
          </mxGeometry>
        </mxCell>
        <mxCell id="vzc8XZbFBflK5kjrjfG_-81" value="QUAD_W_0" style="endArrow=baseDash;html=1;rounded=0;startArrow=classicThin;startFill=1;strokeWidth=5;endFill=0;fillColor=#e1d5e7;strokeColor=#9673a6;" edge="1" parent="1">
          <mxGeometry x="0.0006" y="10" width="50" height="50" relative="1" as="geometry">
            <mxPoint x="120" y="320" as="sourcePoint" />
            <mxPoint x="280" y="320" as="targetPoint" />
            <mxPoint as="offset" />
          </mxGeometry>
        </mxCell>
        <mxCell id="vzc8XZbFBflK5kjrjfG_-82" value="QUAD_W_1" style="endArrow=none;html=1;rounded=0;startArrow=classicThin;startFill=1;strokeWidth=2;endFill=0;fillColor=#f8cecc;strokeColor=#b85450;" edge="1" parent="1">
          <mxGeometry x="0.0006" y="10" width="50" height="50" relative="1" as="geometry">
            <mxPoint x="120" y="360" as="sourcePoint" />
            <mxPoint x="280" y="360" as="targetPoint" />
            <mxPoint as="offset" />
          </mxGeometry>
        </mxCell>
        <mxCell id="vzc8XZbFBflK5kjrjfG_-83" value="QUAD_W_2" style="endArrow=none;html=1;rounded=0;startArrow=classicThin;startFill=1;strokeWidth=2;endFill=0;fillColor=#ffe6cc;strokeColor=#d79b00;" edge="1" parent="1">
          <mxGeometry x="0.0006" y="10" width="50" height="50" relative="1" as="geometry">
            <mxPoint x="120" y="400" as="sourcePoint" />
            <mxPoint x="280" y="400" as="targetPoint" />
            <mxPoint as="offset" />
          </mxGeometry>
        </mxCell>
        <mxCell id="vzc8XZbFBflK5kjrjfG_-84" value="QUAD_W_3" style="endArrow=none;html=1;rounded=0;startArrow=classicThin;startFill=1;strokeWidth=2;endFill=0;fillColor=#fff2cc;strokeColor=#d6b656;" edge="1" parent="1">
          <mxGeometry x="0.0006" y="10" width="50" height="50" relative="1" as="geometry">
            <mxPoint x="120" y="440" as="sourcePoint" />
            <mxPoint x="280" y="440" as="targetPoint" />
            <mxPoint as="offset" />
          </mxGeometry>
        </mxCell>
        <mxCell id="vzc8XZbFBflK5kjrjfG_-85" value="QUAD_W_4" style="endArrow=none;html=1;rounded=0;startArrow=baseDash;startFill=0;strokeWidth=2;endFill=0;fillColor=#d5e8d4;strokeColor=#82b366;" edge="1" parent="1">
          <mxGeometry x="0.0006" y="10" width="50" height="50" relative="1" as="geometry">
            <mxPoint x="120" y="480" as="sourcePoint" />
            <mxPoint x="280" y="480" as="targetPoint" />
            <mxPoint as="offset" />
          </mxGeometry>
        </mxCell>
        <mxCell id="vzc8XZbFBflK5kjrjfG_-86" value="" style="endArrow=none;html=1;rounded=0;fillColor=#d5e8d4;strokeColor=#82b366;strokeWidth=1;" edge="1" parent="1">
          <mxGeometry width="50" height="50" relative="1" as="geometry">
            <mxPoint x="1000" y="360" as="sourcePoint" />
            <mxPoint x="1080" y="320" as="targetPoint" />
          </mxGeometry>
        </mxCell>
        <mxCell id="vzc8XZbFBflK5kjrjfG_-87" value="" style="endArrow=none;html=1;rounded=0;fillColor=#dae8fc;strokeColor=#6c8ebf;strokeWidth=1;" edge="1" parent="1">
          <mxGeometry width="50" height="50" relative="1" as="geometry">
            <mxPoint x="1000" y="400" as="sourcePoint" />
            <mxPoint x="1080" y="360" as="targetPoint" />
          </mxGeometry>
        </mxCell>
        <mxCell id="vzc8XZbFBflK5kjrjfG_-88" value="" style="endArrow=none;html=1;rounded=0;fillColor=#e1d5e7;strokeColor=#9673a6;strokeWidth=1;" edge="1" parent="1">
          <mxGeometry width="50" height="50" relative="1" as="geometry">
            <mxPoint x="1000" y="440" as="sourcePoint" />
            <mxPoint x="1080" y="400" as="targetPoint" />
          </mxGeometry>
        </mxCell>
        <mxCell id="vzc8XZbFBflK5kjrjfG_-89" value="" style="endArrow=none;html=1;rounded=0;fillColor=#f8cecc;strokeColor=#b85450;strokeWidth=1;" edge="1" parent="1">
          <mxGeometry width="50" height="50" relative="1" as="geometry">
            <mxPoint x="1000" y="480" as="sourcePoint" />
            <mxPoint x="1080" y="440" as="targetPoint" />
          </mxGeometry>
        </mxCell>
        <mxCell id="vzc8XZbFBflK5kjrjfG_-95" value="" style="endArrow=none;html=1;rounded=0;fillColor=#fff2cc;strokeColor=#d6b656;strokeWidth=1;" edge="1" parent="1">
          <mxGeometry width="50" height="50" relative="1" as="geometry">
            <mxPoint x="760" y="360" as="sourcePoint" />
            <mxPoint x="840" y="320" as="targetPoint" />
          </mxGeometry>
        </mxCell>
        <mxCell id="vzc8XZbFBflK5kjrjfG_-96" value="" style="endArrow=none;html=1;rounded=0;fillColor=#d5e8d4;strokeColor=#82b366;strokeWidth=1;" edge="1" parent="1">
          <mxGeometry width="50" height="50" relative="1" as="geometry">
            <mxPoint x="760" y="400" as="sourcePoint" />
            <mxPoint x="840" y="360" as="targetPoint" />
          </mxGeometry>
        </mxCell>
        <mxCell id="vzc8XZbFBflK5kjrjfG_-97" value="" style="endArrow=none;html=1;rounded=0;fillColor=#dae8fc;strokeColor=#6c8ebf;strokeWidth=1;" edge="1" parent="1">
          <mxGeometry width="50" height="50" relative="1" as="geometry">
            <mxPoint x="760" y="440" as="sourcePoint" />
            <mxPoint x="840" y="400" as="targetPoint" />
          </mxGeometry>
        </mxCell>
        <mxCell id="vzc8XZbFBflK5kjrjfG_-98" value="" style="endArrow=none;html=1;rounded=0;fillColor=#e1d5e7;strokeColor=#9673a6;strokeWidth=1;" edge="1" parent="1">
          <mxGeometry width="50" height="50" relative="1" as="geometry">
            <mxPoint x="760" y="480" as="sourcePoint" />
            <mxPoint x="840" y="440" as="targetPoint" />
          </mxGeometry>
        </mxCell>
        <mxCell id="vzc8XZbFBflK5kjrjfG_-99" value="" style="endArrow=none;html=1;rounded=0;fillColor=#ffe6cc;strokeColor=#d79b00;strokeWidth=1;" edge="1" parent="1">
          <mxGeometry width="50" height="50" relative="1" as="geometry">
            <mxPoint x="520" y="360" as="sourcePoint" />
            <mxPoint x="600" y="320" as="targetPoint" />
          </mxGeometry>
        </mxCell>
        <mxCell id="vzc8XZbFBflK5kjrjfG_-100" value="" style="endArrow=none;html=1;rounded=0;fillColor=#fff2cc;strokeColor=#d6b656;strokeWidth=1;" edge="1" parent="1">
          <mxGeometry width="50" height="50" relative="1" as="geometry">
            <mxPoint x="520" y="400" as="sourcePoint" />
            <mxPoint x="600" y="360" as="targetPoint" />
          </mxGeometry>
        </mxCell>
        <mxCell id="vzc8XZbFBflK5kjrjfG_-101" value="" style="endArrow=none;html=1;rounded=0;fillColor=#d5e8d4;strokeColor=#82b366;strokeWidth=1;" edge="1" parent="1">
          <mxGeometry width="50" height="50" relative="1" as="geometry">
            <mxPoint x="520" y="440" as="sourcePoint" />
            <mxPoint x="600" y="400" as="targetPoint" />
          </mxGeometry>
        </mxCell>
        <mxCell id="vzc8XZbFBflK5kjrjfG_-102" value="" style="endArrow=none;html=1;rounded=0;fillColor=#dae8fc;strokeColor=#6c8ebf;strokeWidth=1;" edge="1" parent="1">
          <mxGeometry width="50" height="50" relative="1" as="geometry">
            <mxPoint x="520" y="480" as="sourcePoint" />
            <mxPoint x="600" y="440" as="targetPoint" />
          </mxGeometry>
        </mxCell>
        <mxCell id="vzc8XZbFBflK5kjrjfG_-103" value="" style="endArrow=none;html=1;rounded=0;fillColor=#f8cecc;strokeColor=#b85450;strokeWidth=1;" edge="1" parent="1">
          <mxGeometry width="50" height="50" relative="1" as="geometry">
            <mxPoint x="280" y="360" as="sourcePoint" />
            <mxPoint x="360" y="320" as="targetPoint" />
          </mxGeometry>
        </mxCell>
        <mxCell id="vzc8XZbFBflK5kjrjfG_-104" value="" style="endArrow=none;html=1;rounded=0;fillColor=#ffe6cc;strokeColor=#d79b00;strokeWidth=1;" edge="1" parent="1">
          <mxGeometry width="50" height="50" relative="1" as="geometry">
            <mxPoint x="280" y="400" as="sourcePoint" />
            <mxPoint x="360" y="360" as="targetPoint" />
          </mxGeometry>
        </mxCell>
        <mxCell id="vzc8XZbFBflK5kjrjfG_-105" value="" style="endArrow=none;html=1;rounded=0;fillColor=#fff2cc;strokeColor=#d6b656;strokeWidth=1;" edge="1" parent="1">
          <mxGeometry width="50" height="50" relative="1" as="geometry">
            <mxPoint x="280" y="440" as="sourcePoint" />
            <mxPoint x="360" y="400" as="targetPoint" />
          </mxGeometry>
        </mxCell>
        <mxCell id="vzc8XZbFBflK5kjrjfG_-106" value="" style="endArrow=none;html=1;rounded=0;fillColor=#d5e8d4;strokeColor=#82b366;strokeWidth=1;" edge="1" parent="1">
          <mxGeometry width="50" height="50" relative="1" as="geometry">
            <mxPoint x="280" y="480" as="sourcePoint" />
            <mxPoint x="360" y="440" as="targetPoint" />
          </mxGeometry>
        </mxCell>
        <mxCell id="vzc8XZbFBflK5kjrjfG_-107" value="" style="endArrow=none;html=1;rounded=0;dashed=1;fillColor=#dae8fc;strokeColor=#6c8ebf;strokeWidth=1;" edge="1" parent="1">
          <mxGeometry width="50" height="50" relative="1" as="geometry">
            <mxPoint x="1240" y="360" as="sourcePoint" />
            <mxPoint x="1320" y="320" as="targetPoint" />
          </mxGeometry>
        </mxCell>
        <mxCell id="vzc8XZbFBflK5kjrjfG_-108" value="" style="endArrow=none;html=1;rounded=0;dashed=1;fillColor=#e1d5e7;strokeColor=#9673a6;strokeWidth=1;" edge="1" parent="1">
          <mxGeometry width="50" height="50" relative="1" as="geometry">
            <mxPoint x="1240" y="400" as="sourcePoint" />
            <mxPoint x="1320" y="360" as="targetPoint" />
          </mxGeometry>
        </mxCell>
        <mxCell id="vzc8XZbFBflK5kjrjfG_-109" value="" style="endArrow=none;html=1;rounded=0;dashed=1;fillColor=#f8cecc;strokeColor=#b85450;strokeWidth=1;" edge="1" parent="1">
          <mxGeometry width="50" height="50" relative="1" as="geometry">
            <mxPoint x="1240" y="440" as="sourcePoint" />
            <mxPoint x="1320" y="400" as="targetPoint" />
          </mxGeometry>
        </mxCell>
        <mxCell id="vzc8XZbFBflK5kjrjfG_-110" value="" style="endArrow=none;html=1;rounded=0;dashed=1;fillColor=#ffe6cc;strokeColor=#d79b00;strokeWidth=1;" edge="1" parent="1">
          <mxGeometry width="50" height="50" relative="1" as="geometry">
            <mxPoint x="1240" y="480" as="sourcePoint" />
            <mxPoint x="1320" y="440" as="targetPoint" />
          </mxGeometry>
        </mxCell>
        <mxCell id="vzc8XZbFBflK5kjrjfG_-113" value="" style="curved=1;endArrow=none;html=1;rounded=0;startFill=0;fillColor=#e1d5e7;strokeColor=#9673a6;strokeWidth=1;" edge="1" parent="1">
          <mxGeometry width="50" height="50" relative="1" as="geometry">
            <mxPoint x="120" y="320" as="sourcePoint" />
            <mxPoint x="120" y="160" as="targetPoint" />
            <Array as="points">
              <mxPoint x="40" y="320" />
              <mxPoint x="40" y="160" />
            </Array>
          </mxGeometry>
        </mxCell>
        <mxCell id="vzc8XZbFBflK5kjrjfG_-117" value="" style="curved=1;endArrow=none;html=1;rounded=0;startFill=0;fillColor=#f8cecc;strokeColor=#b85450;strokeWidth=1;" edge="1" parent="1">
          <mxGeometry width="50" height="50" relative="1" as="geometry">
            <mxPoint x="120" y="360" as="sourcePoint" />
            <mxPoint x="120" y="200" as="targetPoint" />
            <Array as="points">
              <mxPoint x="60" y="360" />
              <mxPoint x="60" y="200" />
            </Array>
          </mxGeometry>
        </mxCell>
        <mxCell id="vzc8XZbFBflK5kjrjfG_-118" value="" style="curved=1;endArrow=none;html=1;rounded=0;startFill=0;fillColor=#ffe6cc;strokeColor=#d79b00;strokeWidth=1;" edge="1" parent="1">
          <mxGeometry width="50" height="50" relative="1" as="geometry">
            <mxPoint x="120" y="400" as="sourcePoint" />
            <mxPoint x="120" y="240" as="targetPoint" />
            <Array as="points">
              <mxPoint x="40" y="400" />
              <mxPoint x="40" y="240" />
            </Array>
          </mxGeometry>
        </mxCell>
        <mxCell id="vzc8XZbFBflK5kjrjfG_-120" value="" style="curved=1;endArrow=none;html=1;rounded=0;startFill=0;fillColor=#fff2cc;strokeColor=#d6b656;strokeWidth=1;" edge="1" parent="1">
          <mxGeometry width="50" height="50" relative="1" as="geometry">
            <mxPoint x="120" y="440" as="sourcePoint" />
            <mxPoint x="120" y="280" as="targetPoint" />
            <Array as="points">
              <mxPoint x="60" y="440" />
              <mxPoint x="60" y="280" />
            </Array>
          </mxGeometry>
        </mxCell>
      </root>
    </mxGraphModel>
  </diagram>
</mxfile>
